<?xml version="1.0" encoding="UTF-8" standalone="no"?>
<!DOCTYPE svg PUBLIC "-//W3C//DTD SVG 1.1//EN"
 "http://www.w3.org/Graphics/SVG/1.1/DTD/svg11.dtd">
<!-- Generated by graphviz version 2.43.0 (0)
 -->
<!-- Title: Client Pages: 1 -->
<svg width="212pt" height="175pt"
 viewBox="0.00 0.00 212.00 175.00" xmlns="http://www.w3.org/2000/svg" xmlns:xlink="http://www.w3.org/1999/xlink">
<g id="graph0" class="graph" transform="scale(1 1) rotate(0) translate(4 171)">
<title>Client</title>
<!-- Node1 -->
<g id="Node000001" class="node">
<title>Node1</title>
<g id="a_Node000001"><a xlink:title="NETCONF client functionality.">
<polygon fill="#999999" stroke="#666666" points="45,-93 0,-93 0,-74 45,-74 45,-93"/>
<text text-anchor="middle" x="22.5" y="-81" font-family="Helvetica,sans-Serif" font-size="10.00">Client</text>
</a>
</g>
</g>
<!-- Node6 -->
<g id="Node000006" class="node">
<title>Node6</title>
<g id="a_Node000006"><a xlink:href="group__client__ch.html" target="_top" xlink:title="Call Home functionality for client&#45;side applications.">
<polygon fill="white" stroke="#666666" points="204,-167 81,-167 81,-148 204,-148 204,-167"/>
<text text-anchor="middle" x="142.5" y="-155" font-family="Helvetica,sans-Serif" font-size="10.00">Client&#45;side Call Home</text>
</a>
</g>
</g>
<!-- Node1&#45;&gt;Node6 -->
<g id="edge5" class="edge">
<title>Node1&#45;&gt;Node6</title>
<path fill="none" stroke="black" d="M37.54,-101.13C48.25,-113.49 64.01,-129.53 81,-139.5 86.77,-142.88 93.22,-145.68 99.7,-147.97"/>
<polygon fill="black" stroke="black" points="40.08,-98.71 30.98,-93.28 34.71,-103.2 40.08,-98.71"/>
</g>
<!-- Node2 -->
<g id="Node000002" class="node">
<title>Node2</title>
<g id="a_Node000002"><a xlink:href="group__client__msg.html" target="_top" xlink:title="Functions to create NETCONF RPCs (or actions) and process replies received from the server.">
<polygon fill="white" stroke="#666666" points="191,-130 94,-130 94,-111 191,-111 191,-130"/>
<text text-anchor="middle" x="142.5" y="-118" font-family="Helvetica,sans-Serif" font-size="10.00">Client Messages</text>
</a>
</g>
</g>
<!-- Node1&#45;&gt;Node2 -->
<g id="edge1" class="edge">
<title>Node1&#45;&gt;Node2</title>
<path fill="none" stroke="black" d="M54.62,-93.97C63.16,-96.79 72.42,-99.81 81,-102.5 89.99,-105.32 99.77,-108.28 108.79,-110.96"/>
<polygon fill="black" stroke="black" points="55.61,-90.61 45.02,-90.78 53.41,-97.26 55.61,-90.61"/>
</g>
<!-- Node4 -->
<g id="Node000004" class="node">
<title>Node4</title>
<g id="a_Node000004"><a xlink:href="group__client__session.html" target="_top" xlink:title="Client&#45;side NETCONF session manipulation.">
<polygon fill="white" stroke="#666666" points="185.5,-93 99.5,-93 99.5,-74 185.5,-74 185.5,-93"/>
<text text-anchor="middle" x="142.5" y="-81" font-family="Helvetica,sans-Serif" font-size="10.00">Client Session</text>
</a>
</g>
</g>
<!-- Node1&#45;&gt;Node4 -->
<g id="edge3" class="edge">
<title>Node1&#45;&gt;Node4</title>
<path fill="none" stroke="black" d="M55.41,-83.5C68.97,-83.5 84.96,-83.5 99.45,-83.5"/>
<polygon fill="black" stroke="black" points="55.14,-80 45.14,-83.5 55.14,-87 55.14,-80"/>
</g>
<!-- Node3 -->
<g id="Node000003" class="node">
<title>Node3</title>
<g id="a_Node000003"><a xlink:href="group__client__ssh.html" target="_top" xlink:title="Client&#45;side settings for SSH connections.">
<polygon fill="white" stroke="#666666" points="176.5,-56 108.5,-56 108.5,-37 176.5,-37 176.5,-56"/>
<text text-anchor="middle" x="142.5" y="-44" font-family="Helvetica,sans-Serif" font-size="10.00">Client SSH</text>
</a>
</g>
</g>
<!-- Node1&#45;&gt;Node3 -->
<g id="edge2" class="edge">
<title>Node1&#45;&gt;Node3</title>
<path fill="none" stroke="black" d="M54.85,-73.67C72.27,-68.21 93.85,-61.44 111.11,-56.03"/>
<polygon fill="black" stroke="black" points="53.64,-70.38 45.14,-76.71 55.73,-77.06 53.64,-70.38"/>
</g>
<!-- Node5 -->
<g id="Node000005" class="node">
<title>Node5</title>
<g id="a_Node000005"><a xlink:href="group__client__tls.html" target="_top" xlink:title="Client&#45;side settings for TLS connections.">
<polygon fill="white" stroke="#666666" points="175,-19 110,-19 110,0 175,0 175,-19"/>
<text text-anchor="middle" x="142.5" y="-7" font-family="Helvetica,sans-Serif" font-size="10.00">Client TLS</text>
</a>
</g>
</g>
<!-- Node1&#45;&gt;Node5 -->
<g id="edge4" class="edge">
<title>Node1&#45;&gt;Node5</title>
<path fill="none" stroke="black" d="M37.65,-66.27C48.41,-54.17 64.19,-38.44 81,-28.5 89.81,-23.29 100.21,-19.36 109.87,-16.46"/>
<polygon fill="black" stroke="black" points="34.91,-64.08 31.05,-73.95 40.22,-68.65 34.91,-64.08"/>
</g>
</g>
</svg>
