<?xml version="1.0" encoding="UTF-8" standalone="no"?>
<!DOCTYPE svg PUBLIC "-//W3C//DTD SVG 1.1//EN"
 "http://www.w3.org/Graphics/SVG/1.1/DTD/svg11.dtd">
<!-- Generated by graphviz version 2.43.0 (0)
 -->
<!-- Title: Server Pages: 1 -->
<svg width="218pt" height="175pt"
 viewBox="0.00 0.00 218.00 175.00" xmlns="http://www.w3.org/2000/svg" xmlns:xlink="http://www.w3.org/1999/xlink">
<g id="graph0" class="graph" transform="scale(1 1) rotate(0) translate(4 171)">
<title>Server</title>
<!-- Node1 -->
<g id="Node000001" class="node">
<title>Node1</title>
<g id="a_Node000001"><a xlink:title="NETCONF server functionality.">
<polygon fill="#999999" stroke="#666666" points="48,-93 0,-93 0,-74 48,-74 48,-93"/>
<text text-anchor="middle" x="24" y="-81" font-family="Helvetica,sans-Serif" font-size="10.00">Server</text>
</a>
</g>
</g>
<!-- Node6 -->
<g id="Node000006" class="node">
<title>Node6</title>
<g id="a_Node000006"><a xlink:href="group__server__ch.html" target="_top" xlink:title="Call Home functionality for server&#45;side applications.">
<polygon fill="white" stroke="#666666" points="210,-167 84,-167 84,-148 210,-148 210,-167"/>
<text text-anchor="middle" x="147" y="-155" font-family="Helvetica,sans-Serif" font-size="10.00">Server&#45;side Call Home</text>
</a>
</g>
</g>
<!-- Node1&#45;&gt;Node6 -->
<g id="edge5" class="edge">
<title>Node1&#45;&gt;Node6</title>
<path fill="none" stroke="black" d="M39.48,-101.15C50.5,-113.52 66.68,-129.56 84,-139.5 89.83,-142.85 96.34,-145.61 102.88,-147.89"/>
<polygon fill="black" stroke="black" points="41.89,-98.59 32.72,-93.29 36.59,-103.16 41.89,-98.59"/>
</g>
<!-- Node2 -->
<g id="Node000002" class="node">
<title>Node2</title>
<g id="a_Node000002"><a xlink:href="group__server__msg.html" target="_top" xlink:title="Functions to create NETCONF Event notifications and replies to the NETCONF RPCs (or actions).">
<polygon fill="white" stroke="#666666" points="197,-130 97,-130 97,-111 197,-111 197,-130"/>
<text text-anchor="middle" x="147" y="-118" font-family="Helvetica,sans-Serif" font-size="10.00">Server Messages</text>
</a>
</g>
</g>
<!-- Node1&#45;&gt;Node2 -->
<g id="edge1" class="edge">
<title>Node1&#45;&gt;Node2</title>
<path fill="none" stroke="black" d="M57.82,-94.26C66.33,-96.99 75.49,-99.9 84,-102.5 93.22,-105.32 103.24,-108.28 112.48,-110.96"/>
<polygon fill="black" stroke="black" points="58.8,-90.89 48.21,-91.15 56.65,-97.55 58.8,-90.89"/>
</g>
<!-- Node4 -->
<g id="Node000004" class="node">
<title>Node4</title>
<g id="a_Node000004"><a xlink:href="group__server__session.html" target="_top" xlink:title="Server&#45;side NETCONF session manipulation.">
<polygon fill="white" stroke="#666666" points="191.5,-93 102.5,-93 102.5,-74 191.5,-74 191.5,-93"/>
<text text-anchor="middle" x="147" y="-81" font-family="Helvetica,sans-Serif" font-size="10.00">Server Session</text>
</a>
</g>
</g>
<!-- Node1&#45;&gt;Node4 -->
<g id="edge3" class="edge">
<title>Node1&#45;&gt;Node4</title>
<path fill="none" stroke="black" d="M58.4,-83.5C72.02,-83.5 87.95,-83.5 102.47,-83.5"/>
<polygon fill="black" stroke="black" points="58.04,-80 48.04,-83.5 58.04,-87 58.04,-80"/>
</g>
<!-- Node3 -->
<g id="Node000003" class="node">
<title>Node3</title>
<g id="a_Node000003"><a xlink:href="group__server__ssh.html" target="_top" xlink:title="Server&#45;side settings for SSH connections.">
<polygon fill="white" stroke="#666666" points="182.5,-56 111.5,-56 111.5,-37 182.5,-37 182.5,-56"/>
<text text-anchor="middle" x="147" y="-44" font-family="Helvetica,sans-Serif" font-size="10.00">Server SSH</text>
</a>
</g>
</g>
<!-- Node1&#45;&gt;Node3 -->
<g id="edge2" class="edge">
<title>Node1&#45;&gt;Node3</title>
<path fill="none" stroke="black" d="M57.95,-73.43C75.66,-68.01 97.38,-61.37 114.81,-56.04"/>
<polygon fill="black" stroke="black" points="56.58,-70.18 48.04,-76.45 58.63,-76.88 56.58,-70.18"/>
</g>
<!-- Node5 -->
<g id="Node000005" class="node">
<title>Node5</title>
<g id="a_Node000005"><a xlink:href="group__server__tls.html" target="_top" xlink:title="Server&#45;side settings for TLS connections.">
<polygon fill="white" stroke="#666666" points="181,-19 113,-19 113,0 181,0 181,-19"/>
<text text-anchor="middle" x="147" y="-7" font-family="Helvetica,sans-Serif" font-size="10.00">Server TLS</text>
</a>
</g>
</g>
<!-- Node1&#45;&gt;Node5 -->
<g id="edge4" class="edge">
<title>Node1&#45;&gt;Node5</title>
<path fill="none" stroke="black" d="M39.58,-66.25C50.66,-54.14 66.86,-38.4 84,-28.5 92.87,-23.38 103.27,-19.49 112.99,-16.62"/>
<polygon fill="black" stroke="black" points="36.79,-64.13 32.79,-73.94 42.03,-68.76 36.79,-64.13"/>
</g>
</g>
</svg>
