<?xml version="1.0" encoding="UTF-8" standalone="no"?>
<!DOCTYPE svg PUBLIC "-//W3C//DTD SVG 1.1//EN"
 "http://www.w3.org/Graphics/SVG/1.1/DTD/svg11.dtd">
<!-- Generated by graphviz version 2.43.0 (0)
 -->
<!-- Title: Server&#45;side Call Home Pages: 1 -->
<svg width="380pt" height="86pt"
 viewBox="0.00 0.00 380.00 86.00" xmlns="http://www.w3.org/2000/svg" xmlns:xlink="http://www.w3.org/1999/xlink">
<g id="graph0" class="graph" transform="scale(1 1) rotate(0) translate(4 82)">
<title>Server&#45;side Call Home</title>
<!-- Node2 -->
<g id="Node000002" class="node">
<title>Node2</title>
<g id="a_Node000002"><a xlink:href="group__server.html" target="_top" xlink:title="NETCONF server functionality.">
<polygon fill="white" stroke="#666666" points="48,-48.5 0,-48.5 0,-29.5 48,-29.5 48,-48.5"/>
<text text-anchor="middle" x="24" y="-36.5" font-family="Helvetica,sans-Serif" font-size="10.00">Server</text>
</a>
</g>
</g>
<!-- Node1 -->
<g id="Node000001" class="node">
<title>Node1</title>
<g id="a_Node000001"><a xlink:title="Call Home functionality for server&#45;side applications.">
<polygon fill="#999999" stroke="#666666" points="210,-48.5 84,-48.5 84,-29.5 210,-29.5 210,-48.5"/>
<text text-anchor="middle" x="147" y="-36.5" font-family="Helvetica,sans-Serif" font-size="10.00">Server&#45;side Call Home</text>
</a>
</g>
</g>
<!-- Node2&#45;&gt;Node1 -->
<g id="edge1" class="edge">
<title>Node2&#45;&gt;Node1</title>
<path fill="none" stroke="black" d="M58.04,-39C66.06,-39 74.89,-39 83.77,-39"/>
<polygon fill="black" stroke="black" points="58.04,-35.5 48.04,-39 58.04,-42.5 58.04,-35.5"/>
</g>
<!-- Node3 -->
<g id="Node000003" class="node">
<title>Node3</title>
<g id="a_Node000003"><a xlink:href="group__server__ch__ssh.html" target="_top" xlink:title="SSH settings for the Call Home functionality.">
<polygon fill="white" stroke="#666666" points="372,-78 246,-78 246,-48 372,-48 372,-78"/>
<text text-anchor="start" x="254" y="-66" font-family="Helvetica,sans-Serif" font-size="10.00">Server&#45;side Call Home</text>
<text text-anchor="middle" x="309" y="-55" font-family="Helvetica,sans-Serif" font-size="10.00"> on SSH</text>
</a>
</g>
</g>
<!-- Node1&#45;&gt;Node3 -->
<g id="edge2" class="edge">
<title>Node1&#45;&gt;Node3</title>
<path fill="none" stroke="black" d="M220.27,-49.84C228.81,-51.12 237.47,-52.42 245.85,-53.68"/>
<polygon fill="black" stroke="black" points="220.73,-46.37 210.32,-48.35 219.69,-53.29 220.73,-46.37"/>
</g>
<!-- Node4 -->
<g id="Node000004" class="node">
<title>Node4</title>
<g id="a_Node000004"><a xlink:href="group__server__ch__tls.html" target="_top" xlink:title="TLS settings for the Call Home functionality.">
<polygon fill="white" stroke="#666666" points="372,-30 246,-30 246,0 372,0 372,-30"/>
<text text-anchor="start" x="254" y="-18" font-family="Helvetica,sans-Serif" font-size="10.00">Server&#45;side Call Home</text>
<text text-anchor="middle" x="309" y="-7" font-family="Helvetica,sans-Serif" font-size="10.00"> on TLS</text>
</a>
</g>
</g>
<!-- Node1&#45;&gt;Node4 -->
<g id="edge3" class="edge">
<title>Node1&#45;&gt;Node4</title>
<path fill="none" stroke="black" d="M220.27,-28.16C228.81,-26.88 237.47,-25.58 245.85,-24.32"/>
<polygon fill="black" stroke="black" points="219.69,-24.71 210.32,-29.65 220.73,-31.63 219.69,-24.71"/>
</g>
</g>
</svg>
