<?xml version="1.0" encoding="UTF-8" standalone="no"?>
<!DOCTYPE svg PUBLIC "-//W3C//DTD SVG 1.1//EN"
 "http://www.w3.org/Graphics/SVG/1.1/DTD/svg11.dtd">
<!-- Generated by graphviz version 2.43.0 (0)
 -->
<!-- Title: Client&#45;side Call Home Pages: 1 -->
<svg width="371pt" height="86pt"
 viewBox="0.00 0.00 371.00 86.00" xmlns="http://www.w3.org/2000/svg" xmlns:xlink="http://www.w3.org/1999/xlink">
<g id="graph0" class="graph" transform="scale(1 1) rotate(0) translate(4 82)">
<title>Client&#45;side Call Home</title>
<!-- Node2 -->
<g id="Node000002" class="node">
<title>Node2</title>
<g id="a_Node000002"><a xlink:href="group__client.html" target="_top" xlink:title="NETCONF client functionality.">
<polygon fill="white" stroke="#666666" points="45,-48.5 0,-48.5 0,-29.5 45,-29.5 45,-48.5"/>
<text text-anchor="middle" x="22.5" y="-36.5" font-family="Helvetica,sans-Serif" font-size="10.00">Client</text>
</a>
</g>
</g>
<!-- Node1 -->
<g id="Node000001" class="node">
<title>Node1</title>
<g id="a_Node000001"><a xlink:title="Call Home functionality for client&#45;side applications.">
<polygon fill="#999999" stroke="#666666" points="204,-48.5 81,-48.5 81,-29.5 204,-29.5 204,-48.5"/>
<text text-anchor="middle" x="142.5" y="-36.5" font-family="Helvetica,sans-Serif" font-size="10.00">Client&#45;side Call Home</text>
</a>
</g>
</g>
<!-- Node2&#45;&gt;Node1 -->
<g id="edge1" class="edge">
<title>Node2&#45;&gt;Node1</title>
<path fill="none" stroke="black" d="M55.35,-39C63.27,-39 72.02,-39 80.83,-39"/>
<polygon fill="black" stroke="black" points="55.14,-35.5 45.14,-39 55.14,-42.5 55.14,-35.5"/>
</g>
<!-- Node3 -->
<g id="Node000003" class="node">
<title>Node3</title>
<g id="a_Node000003"><a xlink:href="group__client__ch__ssh.html" target="_top" xlink:title="SSH settings for the Call Home functionality.">
<polygon fill="white" stroke="#666666" points="363,-78 240,-78 240,-48 363,-48 363,-78"/>
<text text-anchor="start" x="248" y="-66" font-family="Helvetica,sans-Serif" font-size="10.00">Client&#45;side Call Home</text>
<text text-anchor="middle" x="301.5" y="-55" font-family="Helvetica,sans-Serif" font-size="10.00"> on SSH</text>
</a>
</g>
</g>
<!-- Node1&#45;&gt;Node3 -->
<g id="edge2" class="edge">
<title>Node1&#45;&gt;Node3</title>
<path fill="none" stroke="black" d="M214.21,-49.81C222.81,-51.12 231.53,-52.46 239.96,-53.75"/>
<polygon fill="black" stroke="black" points="214.61,-46.33 204.2,-48.28 213.56,-53.25 214.61,-46.33"/>
</g>
<!-- Node4 -->
<g id="Node000004" class="node">
<title>Node4</title>
<g id="a_Node000004"><a xlink:href="group__client__ch__tls.html" target="_top" xlink:title="TLS settings for the Call Home functionality.">
<polygon fill="white" stroke="#666666" points="363,-30 240,-30 240,0 363,0 363,-30"/>
<text text-anchor="start" x="248" y="-18" font-family="Helvetica,sans-Serif" font-size="10.00">Client&#45;side Call Home</text>
<text text-anchor="middle" x="301.5" y="-7" font-family="Helvetica,sans-Serif" font-size="10.00"> on TLS</text>
</a>
</g>
</g>
<!-- Node1&#45;&gt;Node4 -->
<g id="edge3" class="edge">
<title>Node1&#45;&gt;Node4</title>
<path fill="none" stroke="black" d="M214.21,-28.19C222.81,-26.88 231.53,-25.54 239.96,-24.25"/>
<polygon fill="black" stroke="black" points="213.56,-24.75 204.2,-29.72 214.61,-31.67 213.56,-24.75"/>
</g>
</g>
</svg>
