<?xml version="1.0" encoding="UTF-8" standalone="no"?>
<!DOCTYPE svg PUBLIC "-//W3C//DTD SVG 1.1//EN"
 "http://www.w3.org/Graphics/SVG/1.1/DTD/svg11.dtd">
<!-- Generated by graphviz version 2.43.0 (0)
 -->
<!-- Title: src/messages_server.h Pages: 1 -->
<svg width="299pt" height="192pt"
 viewBox="0.00 0.00 298.50 192.00" xmlns="http://www.w3.org/2000/svg" xmlns:xlink="http://www.w3.org/1999/xlink">

<svg id="main" version="1.1" xmlns="http://www.w3.org/2000/svg" xmlns:xlink="http://www.w3.org/1999/xlink" xml:space="preserve" onload="init(evt)">
<style type="text/css"><![CDATA[
.node, .edge {opacity: 0.7;}
.node.selected, .edge.selected {opacity: 1;}
.edge:hover path { stroke: red; }
.edge:hover polygon { stroke: red; fill: red; }
]]></style>
<script type="application/ecmascript" xlink:href="svg.min.js"/>
<svg id="graph" class="graph">
<g id="graph0" class="graph" transform="scale(1 1) rotate(0) translate(4 188)">
<title>src/messages_server.h</title>
<!-- Node1 -->
<g id="Node000001" class="node">
<title>Node1</title>
<g id="a_Node000001"><a xlink:title="libnetconf2&#39;s functions and structures of server NETCONF messages.">
<polygon fill="#999999" stroke="#666666" points="236.5,-184 108.5,-184 108.5,-165 236.5,-165 236.5,-184"/>
<text text-anchor="middle" x="172.5" y="-172" font-family="Helvetica,sans-Serif" font-size="10.00">src/messages_server.h</text>
</a>
</g>
</g>
<!-- Node2 -->
<g id="Node000002" class="node">
<title>Node2</title>
<g id="a_Node000002"><a xlink:title=" ">
<polygon fill="#e0e0e0" stroke="#999999" points="101,-129 0,-129 0,-110 101,-110 101,-129"/>
<text text-anchor="middle" x="50.5" y="-117" font-family="Helvetica,sans-Serif" font-size="10.00">libyang/libyang.h</text>
</a>
</g>
</g>
<!-- Node1&#45;&gt;Node2 -->
<g id="edge1_Node000001_Node000002" class="edge">
<title>Node1&#45;&gt;Node2</title>
<g id="a_edge1_Node000001_Node000002"><a xlink:title=" ">
<path fill="none" stroke="#63b8ff" d="M152.9,-164.98C133.18,-156.42 102.55,-143.11 79.92,-133.28"/>
<polygon fill="#63b8ff" stroke="#63b8ff" points="81.02,-129.94 70.46,-129.17 78.24,-136.37 81.02,-129.94"/>
</a>
</g>
</g>
<!-- Node3 -->
<g id="Node000003" class="node">
<title>Node3</title>
<g id="a_Node000003"><a xlink:title=" ">
<polygon fill="#e0e0e0" stroke="#999999" points="172,-129 119,-129 119,-110 172,-110 172,-129"/>
<text text-anchor="middle" x="145.5" y="-117" font-family="Helvetica,sans-Serif" font-size="10.00">stdint.h</text>
</a>
</g>
</g>
<!-- Node1&#45;&gt;Node3 -->
<g id="edge2_Node000001_Node000003" class="edge">
<title>Node1&#45;&gt;Node3</title>
<g id="a_edge2_Node000001_Node000003"><a xlink:title=" ">
<path fill="none" stroke="#63b8ff" d="M168.04,-164.75C164.38,-157.57 159.09,-147.18 154.55,-138.27"/>
<polygon fill="#63b8ff" stroke="#63b8ff" points="157.53,-136.41 149.88,-129.09 151.3,-139.59 157.53,-136.41"/>
</a>
</g>
</g>
<!-- Node4 -->
<g id="Node000004" class="node">
<title>Node4</title>
<g id="a_Node000004"><a xlink:href="netconf_8h.html" target="_top" xlink:title="libnetconf2&#39;s general public functions and structures definitions.">
<polygon fill="white" stroke="#666666" points="260.5,-74 198.5,-74 198.5,-55 260.5,-55 260.5,-74"/>
<text text-anchor="middle" x="229.5" y="-62" font-family="Helvetica,sans-Serif" font-size="10.00">netconf.h</text>
</a>
</g>
</g>
<!-- Node1&#45;&gt;Node4 -->
<g id="edge3_Node000001_Node000004" class="edge">
<title>Node1&#45;&gt;Node4</title>
<g id="a_edge3_Node000001_Node000004"><a xlink:title=" ">
<path fill="none" stroke="#63b8ff" d="M177.16,-164.66C186.56,-146.85 207.93,-106.37 220.26,-83.01"/>
<polygon fill="#63b8ff" stroke="#63b8ff" points="223.36,-84.64 224.93,-74.16 217.17,-81.37 223.36,-84.64"/>
</a>
</g>
</g>
<!-- Node6 -->
<g id="Node000006" class="node">
<title>Node6</title>
<g id="a_Node000006"><a xlink:href="session_8h.html" target="_top" xlink:title="libnetconf2 session manipulation">
<polygon fill="white" stroke="#666666" points="290.5,-129 228.5,-129 228.5,-110 290.5,-110 290.5,-129"/>
<text text-anchor="middle" x="259.5" y="-117" font-family="Helvetica,sans-Serif" font-size="10.00">session.h</text>
</a>
</g>
</g>
<!-- Node1&#45;&gt;Node6 -->
<g id="edge5_Node000001_Node000006" class="edge">
<title>Node1&#45;&gt;Node6</title>
<g id="a_edge5_Node000001_Node000006"><a xlink:title=" ">
<path fill="none" stroke="#63b8ff" d="M186.48,-164.98C199.97,-156.77 220.63,-144.18 236.54,-134.49"/>
<polygon fill="#63b8ff" stroke="#63b8ff" points="238.55,-137.36 245.27,-129.17 234.91,-131.38 238.55,-137.36"/>
</a>
</g>
</g>
<!-- Node5 -->
<g id="Node000005" class="node">
<title>Node5</title>
<g id="a_Node000005"><a xlink:title=" ">
<polygon fill="#e0e0e0" stroke="#999999" points="253.5,-19 205.5,-19 205.5,0 253.5,0 253.5,-19"/>
<text text-anchor="middle" x="229.5" y="-7" font-family="Helvetica,sans-Serif" font-size="10.00">time.h</text>
</a>
</g>
</g>
<!-- Node4&#45;&gt;Node5 -->
<g id="edge4_Node000004_Node000005" class="edge">
<title>Node4&#45;&gt;Node5</title>
<g id="a_edge4_Node000004_Node000005"><a xlink:title=" ">
<path fill="none" stroke="#63b8ff" d="M229.5,-54.75C229.5,-47.8 229.5,-37.85 229.5,-29.13"/>
<polygon fill="#63b8ff" stroke="#63b8ff" points="233,-29.09 229.5,-19.09 226,-29.09 233,-29.09"/>
</a>
</g>
</g>
<!-- Node6&#45;&gt;Node4 -->
<g id="edge6_Node000006_Node000004" class="edge">
<title>Node6&#45;&gt;Node4</title>
<g id="a_edge6_Node000006_Node000004"><a xlink:title=" ">
<path fill="none" stroke="#63b8ff" d="M254.55,-109.75C250.44,-102.49 244.47,-91.95 239.4,-82.98"/>
<polygon fill="#63b8ff" stroke="#63b8ff" points="242.33,-81.07 234.36,-74.09 236.24,-84.52 242.33,-81.07"/>
</a>
</g>
</g>
</g>
</svg>
</svg>

<style type='text/css'>
<![CDATA[
[data-mouse-over-selected='false'] { opacity: 0.7; }
[data-mouse-over-selected='true']  { opacity: 1.0; }
]]>
</style>
<script type="application/ecmascript"><![CDATA[
document.addEventListener('DOMContentLoaded', (event) => {
  highlightEdges();
  highlightAdjacentNodes();
});
]]></script>
</svg>
