<?xml version="1.0" encoding="UTF-8" standalone="no"?>
<!DOCTYPE svg PUBLIC "-//W3C//DTD SVG 1.1//EN"
 "http://www.w3.org/Graphics/SVG/1.1/DTD/svg11.dtd">
<!-- Generated by graphviz version 2.43.0 (0)
 -->
<!-- Title: src/netconf.h Pages: 1 -->
<svg width="743pt" height="137pt"
 viewBox="0.00 0.00 742.50 137.00" xmlns="http://www.w3.org/2000/svg" xmlns:xlink="http://www.w3.org/1999/xlink">
<g id="graph0" class="graph" transform="scale(1 1) rotate(0) translate(4 133)">
<title>src/netconf.h</title>
<!-- Node1 -->
<g id="Node000001" class="node">
<title>Node1</title>
<g id="a_Node000001"><a xlink:title="libnetconf2&#39;s general public functions and structures definitions.">
<polygon fill="#999999" stroke="#666666" points="375,-129 296,-129 296,-110 375,-110 375,-129"/>
<text text-anchor="middle" x="335.5" y="-117" font-family="Helvetica,sans-Serif" font-size="10.00">src/netconf.h</text>
</a>
</g>
</g>
<!-- Node2 -->
<g id="Node000002" class="node">
<title>Node2</title>
<g id="a_Node000002"><a xlink:href="libnetconf_8h.html" target="_top" xlink:title="libnetconf2 main internal header.">
<polygon fill="white" stroke="#666666" points="91,-74 0,-74 0,-55 91,-55 91,-74"/>
<text text-anchor="middle" x="45.5" y="-62" font-family="Helvetica,sans-Serif" font-size="10.00">src/libnetconf.h</text>
</a>
</g>
</g>
<!-- Node1&#45;&gt;Node2 -->
<g id="edge1_Node000001_Node000002" class="edge">
<title>Node1&#45;&gt;Node2</title>
<g id="a_edge1_Node000001_Node000002"><a xlink:title=" ">
<path fill="none" stroke="#63b8ff" d="M285.66,-109.39C231.1,-99.42 144.37,-83.57 91.42,-73.89"/>
<polygon fill="#63b8ff" stroke="#63b8ff" points="285.32,-112.89 295.78,-111.24 286.58,-106 285.32,-112.89"/>
</a>
</g>
</g>
<!-- Node3 -->
<g id="Node000003" class="node">
<title>Node3</title>
<g id="a_Node000003"><a xlink:href="messages__client_8h.html" target="_top" xlink:title="libnetconf2&#39;s public functions and structures of NETCONF client messages.">
<polygon fill="white" stroke="#666666" points="273,-74 148,-74 148,-55 273,-55 273,-74"/>
<text text-anchor="middle" x="210.5" y="-62" font-family="Helvetica,sans-Serif" font-size="10.00">src/messages_client.h</text>
</a>
</g>
</g>
<!-- Node1&#45;&gt;Node3 -->
<g id="edge2_Node000001_Node000003" class="edge">
<title>Node1&#45;&gt;Node3</title>
<g id="a_edge2_Node000001_Node000003"><a xlink:title=" ">
<path fill="none" stroke="#63b8ff" d="M306.09,-106.03C282.97,-96.23 251.37,-82.83 230.95,-74.17"/>
<polygon fill="#63b8ff" stroke="#63b8ff" points="304.84,-109.3 315.42,-109.98 307.58,-102.86 304.84,-109.3"/>
</a>
</g>
</g>
<!-- Node4 -->
<g id="Node000004" class="node">
<title>Node4</title>
<g id="a_Node000004"><a xlink:href="session__client_8h.html" target="_top" xlink:title="libnetconf2 session client manipulation">
<polygon fill="white" stroke="#666666" points="158.5,-19 46.5,-19 46.5,0 158.5,0 158.5,-19"/>
<text text-anchor="middle" x="102.5" y="-7" font-family="Helvetica,sans-Serif" font-size="10.00">src/session_client.h</text>
</a>
</g>
</g>
<!-- Node1&#45;&gt;Node4 -->
<g id="edge12_Node000001_Node000004" class="edge">
<title>Node1&#45;&gt;Node4</title>
<g id="a_edge12_Node000001_Node000004"><a xlink:title=" ">
<path fill="none" stroke="#63b8ff" d="M285.54,-118.16C242.69,-115.5 181.28,-105.76 138.5,-74 119.78,-60.1 109.37,-33.38 105,-19.45"/>
<polygon fill="#63b8ff" stroke="#63b8ff" points="285.57,-121.67 295.74,-118.69 285.93,-114.68 285.57,-121.67"/>
</a>
</g>
</g>
<!-- Node5 -->
<g id="Node000005" class="node">
<title>Node5</title>
<g id="a_Node000005"><a xlink:href="session__client__ch_8h.html" target="_top" xlink:title="libnetconf2 Call Home session client manipulation">
<polygon fill="white" stroke="#666666" points="304.5,-19 176.5,-19 176.5,0 304.5,0 304.5,-19"/>
<text text-anchor="middle" x="240.5" y="-7" font-family="Helvetica,sans-Serif" font-size="10.00">src/session_client_ch.h</text>
</a>
</g>
</g>
<!-- Node1&#45;&gt;Node5 -->
<g id="edge13_Node000001_Node000005" class="edge">
<title>Node1&#45;&gt;Node5</title>
<g id="a_edge13_Node000001_Node000005"><a xlink:title=" ">
<path fill="none" stroke="#63b8ff" d="M321.61,-101.8C310.81,-88.9 295.37,-70.67 281.5,-55 270.36,-42.41 257.13,-28.18 248.77,-19.27"/>
<polygon fill="#63b8ff" stroke="#63b8ff" points="319.17,-104.35 328.27,-109.78 324.55,-99.86 319.17,-104.35"/>
</a>
</g>
</g>
<!-- Node6 -->
<g id="Node000006" class="node">
<title>Node6</title>
<g id="a_Node000006"><a xlink:href="messages__server_8h.html" target="_top" xlink:title="libnetconf2&#39;s functions and structures of server NETCONF messages.">
<polygon fill="white" stroke="#666666" points="450.5,-19 322.5,-19 322.5,0 450.5,0 450.5,-19"/>
<text text-anchor="middle" x="386.5" y="-7" font-family="Helvetica,sans-Serif" font-size="10.00">src/messages_server.h</text>
</a>
</g>
</g>
<!-- Node1&#45;&gt;Node6 -->
<g id="edge5_Node000001_Node000006" class="edge">
<title>Node1&#45;&gt;Node6</title>
<g id="a_edge5_Node000001_Node000006"><a xlink:title=" ">
<path fill="none" stroke="#63b8ff" d="M378.07,-106.05C393.59,-99.22 409.53,-88.99 418.5,-74 429.78,-55.14 409.91,-31.81 396.74,-19.34"/>
<polygon fill="#63b8ff" stroke="#63b8ff" points="376.5,-102.9 368.52,-109.87 379.1,-109.4 376.5,-102.9"/>
</a>
</g>
</g>
<!-- Node7 -->
<g id="Node000007" class="node">
<title>Node7</title>
<g id="a_Node000007"><a xlink:href="session_8h.html" target="_top" xlink:title="libnetconf2 session manipulation">
<polygon fill="white" stroke="#666666" points="409.5,-74 329.5,-74 329.5,-55 409.5,-55 409.5,-74"/>
<text text-anchor="middle" x="369.5" y="-62" font-family="Helvetica,sans-Serif" font-size="10.00">src/session.h</text>
</a>
</g>
</g>
<!-- Node1&#45;&gt;Node7 -->
<g id="edge6_Node000001_Node000007" class="edge">
<title>Node1&#45;&gt;Node7</title>
<g id="a_edge6_Node000001_Node000007"><a xlink:title=" ">
<path fill="none" stroke="#63b8ff" d="M346.66,-101.1C352.47,-92.04 359.32,-81.37 363.99,-74.09"/>
<polygon fill="#63b8ff" stroke="#63b8ff" points="343.57,-99.44 341.11,-109.75 349.46,-103.22 343.57,-99.44"/>
</a>
</g>
</g>
<!-- Node8 -->
<g id="Node000008" class="node">
<title>Node8</title>
<g id="a_Node000008"><a xlink:href="session__server_8h.html" target="_top" xlink:title="libnetconf2 session server manipulation">
<polygon fill="white" stroke="#666666" points="584,-19 469,-19 469,0 584,0 584,-19"/>
<text text-anchor="middle" x="526.5" y="-7" font-family="Helvetica,sans-Serif" font-size="10.00">src/session_server.h</text>
</a>
</g>
</g>
<!-- Node1&#45;&gt;Node8 -->
<g id="edge14_Node000001_Node000008" class="edge">
<title>Node1&#45;&gt;Node8</title>
<g id="a_edge14_Node000001_Node000008"><a xlink:title=" ">
<path fill="none" stroke="#63b8ff" d="M367.16,-106C386.96,-97.77 412.73,-86.27 434.5,-74 465.27,-56.66 498.79,-31.88 515.6,-19"/>
<polygon fill="#63b8ff" stroke="#63b8ff" points="365.61,-102.85 357.69,-109.88 368.27,-109.33 365.61,-102.85"/>
</a>
</g>
</g>
<!-- Node9 -->
<g id="Node000009" class="node">
<title>Node9</title>
<g id="a_Node000009"><a xlink:href="session__server__ch_8h.html" target="_top" xlink:title="libnetconf2 Call Home session server manipulation">
<polygon fill="white" stroke="#666666" points="734.5,-19 602.5,-19 602.5,0 734.5,0 734.5,-19"/>
<text text-anchor="middle" x="668.5" y="-7" font-family="Helvetica,sans-Serif" font-size="10.00">src/session_server_ch.h</text>
</a>
</g>
</g>
<!-- Node1&#45;&gt;Node9 -->
<g id="edge15_Node000001_Node000009" class="edge">
<title>Node1&#45;&gt;Node9</title>
<g id="a_edge15_Node000001_Node000009"><a xlink:title=" ">
<path fill="none" stroke="#63b8ff" d="M371.68,-106.77C439.18,-84.87 582.83,-38.29 642.09,-19.07"/>
<polygon fill="#63b8ff" stroke="#63b8ff" points="370.34,-103.52 361.91,-109.94 372.5,-110.18 370.34,-103.52"/>
</a>
</g>
</g>
<!-- Node3&#45;&gt;Node4 -->
<g id="edge3_Node000003_Node000004" class="edge">
<title>Node3&#45;&gt;Node4</title>
<g id="a_edge3_Node000003_Node000004"><a xlink:title=" ">
<path fill="none" stroke="#63b8ff" d="M184.01,-50.5C164.14,-40.75 137.5,-27.68 120.17,-19.17"/>
<polygon fill="#63b8ff" stroke="#63b8ff" points="182.63,-53.72 193.15,-54.98 185.71,-47.44 182.63,-53.72"/>
</a>
</g>
</g>
<!-- Node3&#45;&gt;Node5 -->
<g id="edge4_Node000003_Node000005" class="edge">
<title>Node3&#45;&gt;Node5</title>
<g id="a_edge4_Node000003_Node000005"><a xlink:title=" ">
<path fill="none" stroke="#63b8ff" d="M220.51,-45.82C225.6,-36.82 231.56,-26.29 235.64,-19.09"/>
<polygon fill="#63b8ff" stroke="#63b8ff" points="217.33,-44.32 215.45,-54.75 223.43,-47.77 217.33,-44.32"/>
</a>
</g>
</g>
<!-- Node7&#45;&gt;Node4 -->
<g id="edge8_Node000007_Node000004" class="edge">
<title>Node7&#45;&gt;Node4</title>
<g id="a_edge8_Node000007_Node000004"><a xlink:title=" ">
<path fill="none" stroke="#63b8ff" d="M319.28,-53.53C269.24,-43.6 193.2,-28.5 145.75,-19.09"/>
<polygon fill="#63b8ff" stroke="#63b8ff" points="318.75,-56.99 329.24,-55.51 320.11,-50.13 318.75,-56.99"/>
</a>
</g>
</g>
<!-- Node7&#45;&gt;Node5 -->
<g id="edge9_Node000007_Node000005" class="edge">
<title>Node7&#45;&gt;Node5</title>
<g id="a_edge9_Node000007_Node000005"><a xlink:title=" ">
<path fill="none" stroke="#63b8ff" d="M339.46,-51.16C315.58,-41.35 282.78,-27.87 261.6,-19.17"/>
<polygon fill="#63b8ff" stroke="#63b8ff" points="338.19,-54.42 348.77,-54.98 340.85,-47.95 338.19,-54.42"/>
</a>
</g>
</g>
<!-- Node7&#45;&gt;Node6 -->
<g id="edge7_Node000007_Node000006" class="edge">
<title>Node7&#45;&gt;Node6</title>
<g id="a_edge7_Node000007_Node000006"><a xlink:title=" ">
<path fill="none" stroke="#63b8ff" d="M375.45,-44.95C378.27,-36.15 381.51,-26.06 383.75,-19.09"/>
<polygon fill="#63b8ff" stroke="#63b8ff" points="372.03,-44.16 372.31,-54.75 378.69,-46.29 372.03,-44.16"/>
</a>
</g>
</g>
<!-- Node7&#45;&gt;Node8 -->
<g id="edge10_Node000007_Node000008" class="edge">
<title>Node7&#45;&gt;Node8</title>
<g id="a_edge10_Node000007_Node000008"><a xlink:title=" ">
<path fill="none" stroke="#63b8ff" d="M404.55,-51.67C433.82,-41.79 474.87,-27.93 501.08,-19.08"/>
<polygon fill="#63b8ff" stroke="#63b8ff" points="403.08,-48.47 394.72,-54.98 405.32,-55.1 403.08,-48.47"/>
</a>
</g>
</g>
<!-- Node7&#45;&gt;Node9 -->
<g id="edge11_Node000007_Node000009" class="edge">
<title>Node7&#45;&gt;Node9</title>
<g id="a_edge11_Node000007_Node000009"><a xlink:title=" ">
<path fill="none" stroke="#63b8ff" d="M419.54,-54.63C475.41,-44.73 565.21,-28.81 620.32,-19.04"/>
<polygon fill="#63b8ff" stroke="#63b8ff" points="418.75,-51.22 409.51,-56.41 419.97,-58.11 418.75,-51.22"/>
</a>
</g>
</g>
</g>
</svg>
