<?xml version="1.0" encoding="UTF-8" standalone="no"?>
<!DOCTYPE svg PUBLIC "-//W3C//DTD SVG 1.1//EN"
 "http://www.w3.org/Graphics/SVG/1.1/DTD/svg11.dtd">
<!-- Generated by graphviz version 2.43.0 (0)
 -->
<!-- Title: src/session.h Pages: 1 -->
<svg width="696pt" height="82pt"
 viewBox="0.00 0.00 696.00 82.00" xmlns="http://www.w3.org/2000/svg" xmlns:xlink="http://www.w3.org/1999/xlink">
<g id="graph0" class="graph" transform="scale(1 1) rotate(0) translate(4 78)">
<title>src/session.h</title>
<!-- Node1 -->
<g id="Node000001" class="node">
<title>Node1</title>
<g id="a_Node000001"><a xlink:title="libnetconf2 session manipulation">
<polygon fill="#999999" stroke="#666666" points="380,-74 300,-74 300,-55 380,-55 380,-74"/>
<text text-anchor="middle" x="340" y="-62" font-family="Helvetica,sans-Serif" font-size="10.00">src/session.h</text>
</a>
</g>
</g>
<!-- Node2 -->
<g id="Node000002" class="node">
<title>Node2</title>
<g id="a_Node000002"><a xlink:href="messages__server_8h.html" target="_top" xlink:title="libnetconf2&#39;s functions and structures of server NETCONF messages.">
<polygon fill="white" stroke="#666666" points="128,-19 0,-19 0,0 128,0 128,-19"/>
<text text-anchor="middle" x="64" y="-7" font-family="Helvetica,sans-Serif" font-size="10.00">src/messages_server.h</text>
</a>
</g>
</g>
<!-- Node1&#45;&gt;Node2 -->
<g id="edge1_Node000001_Node000002" class="edge">
<title>Node1&#45;&gt;Node2</title>
<g id="a_edge1_Node000001_Node000002"><a xlink:title=" ">
<path fill="none" stroke="#63b8ff" d="M289.9,-53.88C238.06,-43.92 157.88,-28.53 108.3,-19.01"/>
<polygon fill="#63b8ff" stroke="#63b8ff" points="289.39,-57.34 299.87,-55.79 290.71,-50.47 289.39,-57.34"/>
</a>
</g>
</g>
<!-- Node3 -->
<g id="Node000003" class="node">
<title>Node3</title>
<g id="a_Node000003"><a xlink:href="session__client_8h.html" target="_top" xlink:title="libnetconf2 session client manipulation">
<polygon fill="white" stroke="#666666" points="258,-19 146,-19 146,0 258,0 258,-19"/>
<text text-anchor="middle" x="202" y="-7" font-family="Helvetica,sans-Serif" font-size="10.00">src/session_client.h</text>
</a>
</g>
</g>
<!-- Node1&#45;&gt;Node3 -->
<g id="edge2_Node000001_Node000003" class="edge">
<title>Node1&#45;&gt;Node3</title>
<g id="a_edge2_Node000001_Node000003"><a xlink:title=" ">
<path fill="none" stroke="#63b8ff" d="M308.21,-51.29C282.63,-41.47 247.33,-27.91 224.58,-19.17"/>
<polygon fill="#63b8ff" stroke="#63b8ff" points="307.24,-54.67 317.83,-54.98 309.75,-48.13 307.24,-54.67"/>
</a>
</g>
</g>
<!-- Node4 -->
<g id="Node000004" class="node">
<title>Node4</title>
<g id="a_Node000004"><a xlink:href="session__client__ch_8h.html" target="_top" xlink:title="libnetconf2 Call Home session client manipulation">
<polygon fill="white" stroke="#666666" points="404,-19 276,-19 276,0 404,0 404,-19"/>
<text text-anchor="middle" x="340" y="-7" font-family="Helvetica,sans-Serif" font-size="10.00">src/session_client_ch.h</text>
</a>
</g>
</g>
<!-- Node1&#45;&gt;Node4 -->
<g id="edge3_Node000001_Node000004" class="edge">
<title>Node1&#45;&gt;Node4</title>
<g id="a_edge3_Node000001_Node000004"><a xlink:title=" ">
<path fill="none" stroke="#63b8ff" d="M340,-44.66C340,-35.93 340,-25.99 340,-19.09"/>
<polygon fill="#63b8ff" stroke="#63b8ff" points="336.5,-44.75 340,-54.75 343.5,-44.75 336.5,-44.75"/>
</a>
</g>
</g>
<!-- Node5 -->
<g id="Node000005" class="node">
<title>Node5</title>
<g id="a_Node000005"><a xlink:href="session__server_8h.html" target="_top" xlink:title="libnetconf2 session server manipulation">
<polygon fill="white" stroke="#666666" points="537.5,-19 422.5,-19 422.5,0 537.5,0 537.5,-19"/>
<text text-anchor="middle" x="480" y="-7" font-family="Helvetica,sans-Serif" font-size="10.00">src/session_server.h</text>
</a>
</g>
</g>
<!-- Node1&#45;&gt;Node5 -->
<g id="edge4_Node000001_Node000005" class="edge">
<title>Node1&#45;&gt;Node5</title>
<g id="a_edge4_Node000001_Node000005"><a xlink:title=" ">
<path fill="none" stroke="#63b8ff" d="M371.91,-51.42C397.88,-41.59 433.92,-27.95 457.1,-19.17"/>
<polygon fill="#63b8ff" stroke="#63b8ff" points="370.61,-48.17 362.49,-54.98 373.08,-54.72 370.61,-48.17"/>
</a>
</g>
</g>
<!-- Node6 -->
<g id="Node000006" class="node">
<title>Node6</title>
<g id="a_Node000006"><a xlink:href="session__server__ch_8h.html" target="_top" xlink:title="libnetconf2 Call Home session server manipulation">
<polygon fill="white" stroke="#666666" points="688,-19 556,-19 556,0 688,0 688,-19"/>
<text text-anchor="middle" x="622" y="-7" font-family="Helvetica,sans-Serif" font-size="10.00">src/session_server_ch.h</text>
</a>
</g>
</g>
<!-- Node1&#45;&gt;Node6 -->
<g id="edge5_Node000001_Node000006" class="edge">
<title>Node1&#45;&gt;Node6</title>
<g id="a_edge5_Node000001_Node000006"><a xlink:title=" ">
<path fill="none" stroke="#63b8ff" d="M390.26,-54.05C443.08,-44.13 525.44,-28.65 576.43,-19.06"/>
<polygon fill="#63b8ff" stroke="#63b8ff" points="389.29,-50.68 380.1,-55.96 390.58,-57.56 389.29,-50.68"/>
</a>
</g>
</g>
</g>
</svg>
