<?xml version="1.0" encoding="UTF-8" standalone="no"?>
<!DOCTYPE svg PUBLIC "-//W3C//DTD SVG 1.1//EN"
 "http://www.w3.org/Graphics/SVG/1.1/DTD/svg11.dtd">
<!-- Generated by graphviz version 2.43.0 (0)
 -->
<!-- Title: src/session_client_ch.h Pages: 1 -->
<svg width="458pt" height="192pt"
 viewBox="0.00 0.00 457.50 192.00" xmlns="http://www.w3.org/2000/svg" xmlns:xlink="http://www.w3.org/1999/xlink">
<g id="graph0" class="graph" transform="scale(1 1) rotate(0) translate(4 188)">
<title>src/session_client_ch.h</title>
<!-- Node1 -->
<g id="Node000001" class="node">
<title>Node1</title>
<g id="a_Node000001"><a xlink:title="libnetconf2 Call Home session client manipulation">
<polygon fill="#999999" stroke="#666666" points="341.5,-184 213.5,-184 213.5,-165 341.5,-165 341.5,-184"/>
<text text-anchor="middle" x="277.5" y="-172" font-family="Helvetica,sans-Serif" font-size="10.00">src/session_client_ch.h</text>
</a>
</g>
</g>
<!-- Node2 -->
<g id="Node000002" class="node">
<title>Node2</title>
<g id="a_Node000002"><a xlink:title=" ">
<polygon fill="#e0e0e0" stroke="#999999" points="101,-129 0,-129 0,-110 101,-110 101,-129"/>
<text text-anchor="middle" x="50.5" y="-117" font-family="Helvetica,sans-Serif" font-size="10.00">libyang/libyang.h</text>
</a>
</g>
</g>
<!-- Node1&#45;&gt;Node2 -->
<g id="edge1_Node000001_Node000002" class="edge">
<title>Node1&#45;&gt;Node2</title>
<g id="a_edge1_Node000001_Node000002"><a xlink:title=" ">
<path fill="none" stroke="#63b8ff" d="M241.03,-164.98C201.93,-155.86 139.73,-141.33 97.11,-131.38"/>
<polygon fill="#63b8ff" stroke="#63b8ff" points="97.79,-127.95 87.26,-129.08 96.2,-134.76 97.79,-127.95"/>
</a>
</g>
</g>
<!-- Node3 -->
<g id="Node000003" class="node">
<title>Node3</title>
<g id="a_Node000003"><a xlink:title=" ">
<polygon fill="#e0e0e0" stroke="#999999" points="205.5,-129 119.5,-129 119.5,-110 205.5,-110 205.5,-129"/>
<text text-anchor="middle" x="162.5" y="-117" font-family="Helvetica,sans-Serif" font-size="10.00">libssh/libssh.h</text>
</a>
</g>
</g>
<!-- Node1&#45;&gt;Node3 -->
<g id="edge2_Node000001_Node000003" class="edge">
<title>Node1&#45;&gt;Node3</title>
<g id="a_edge2_Node000001_Node000003"><a xlink:title=" ">
<path fill="none" stroke="#63b8ff" d="M259.02,-164.98C240.52,-156.46 211.82,-143.23 190.52,-133.41"/>
<polygon fill="#63b8ff" stroke="#63b8ff" points="191.86,-130.18 181.31,-129.17 188.93,-136.53 191.86,-130.18"/>
</a>
</g>
</g>
<!-- Node4 -->
<g id="Node000004" class="node">
<title>Node4</title>
<g id="a_Node000004"><a xlink:href="messages__client_8h.html" target="_top" xlink:title="libnetconf2&#39;s public functions and structures of NETCONF client messages.">
<polygon fill="white" stroke="#666666" points="331,-129 224,-129 224,-110 331,-110 331,-129"/>
<text text-anchor="middle" x="277.5" y="-117" font-family="Helvetica,sans-Serif" font-size="10.00">messages_client.h</text>
</a>
</g>
</g>
<!-- Node1&#45;&gt;Node4 -->
<g id="edge3_Node000001_Node000004" class="edge">
<title>Node1&#45;&gt;Node4</title>
<g id="a_edge3_Node000001_Node000004"><a xlink:title=" ">
<path fill="none" stroke="#63b8ff" d="M277.5,-164.75C277.5,-157.8 277.5,-147.85 277.5,-139.13"/>
<polygon fill="#63b8ff" stroke="#63b8ff" points="281,-139.09 277.5,-129.09 274,-139.09 281,-139.09"/>
</a>
</g>
</g>
<!-- Node6 -->
<g id="Node000006" class="node">
<title>Node6</title>
<g id="a_Node000006"><a xlink:href="netconf_8h.html" target="_top" xlink:title="libnetconf2&#39;s general public functions and structures definitions.">
<polygon fill="white" stroke="#666666" points="390.5,-74 328.5,-74 328.5,-55 390.5,-55 390.5,-74"/>
<text text-anchor="middle" x="359.5" y="-62" font-family="Helvetica,sans-Serif" font-size="10.00">netconf.h</text>
</a>
</g>
</g>
<!-- Node1&#45;&gt;Node6 -->
<g id="edge7_Node000001_Node000006" class="edge">
<title>Node1&#45;&gt;Node6</title>
<g id="a_edge7_Node000001_Node000006"><a xlink:title=" ">
<path fill="none" stroke="#63b8ff" d="M295.15,-164.9C309.07,-157.27 328,-144.88 339.5,-129 349.14,-115.69 354.24,-97.57 356.87,-84.1"/>
<polygon fill="#63b8ff" stroke="#63b8ff" points="360.35,-84.52 358.55,-74.08 353.44,-83.37 360.35,-84.52"/>
</a>
</g>
</g>
<!-- Node8 -->
<g id="Node000008" class="node">
<title>Node8</title>
<g id="a_Node000008"><a xlink:href="session_8h.html" target="_top" xlink:title="libnetconf2 session manipulation">
<polygon fill="white" stroke="#666666" points="449.5,-129 387.5,-129 387.5,-110 449.5,-110 449.5,-129"/>
<text text-anchor="middle" x="418.5" y="-117" font-family="Helvetica,sans-Serif" font-size="10.00">session.h</text>
</a>
</g>
</g>
<!-- Node1&#45;&gt;Node8 -->
<g id="edge8_Node000001_Node000008" class="edge">
<title>Node1&#45;&gt;Node8</title>
<g id="a_edge8_Node000001_Node000008"><a xlink:title=" ">
<path fill="none" stroke="#63b8ff" d="M300.15,-164.98C323.35,-156.27 359.62,-142.63 385.9,-132.75"/>
<polygon fill="#63b8ff" stroke="#63b8ff" points="387.3,-135.97 395.43,-129.17 384.84,-129.41 387.3,-135.97"/>
</a>
</g>
</g>
<!-- Node5 -->
<g id="Node000005" class="node">
<title>Node5</title>
<g id="a_Node000005"><a xlink:title=" ">
<polygon fill="#e0e0e0" stroke="#999999" points="304,-74 251,-74 251,-55 304,-55 304,-74"/>
<text text-anchor="middle" x="277.5" y="-62" font-family="Helvetica,sans-Serif" font-size="10.00">stdint.h</text>
</a>
</g>
</g>
<!-- Node4&#45;&gt;Node5 -->
<g id="edge4_Node000004_Node000005" class="edge">
<title>Node4&#45;&gt;Node5</title>
<g id="a_edge4_Node000004_Node000005"><a xlink:title=" ">
<path fill="none" stroke="#63b8ff" d="M277.5,-109.75C277.5,-102.8 277.5,-92.85 277.5,-84.13"/>
<polygon fill="#63b8ff" stroke="#63b8ff" points="281,-84.09 277.5,-74.09 274,-84.09 281,-84.09"/>
</a>
</g>
</g>
<!-- Node4&#45;&gt;Node6 -->
<g id="edge5_Node000004_Node000006" class="edge">
<title>Node4&#45;&gt;Node6</title>
<g id="a_edge5_Node000004_Node000006"><a xlink:title=" ">
<path fill="none" stroke="#63b8ff" d="M290.67,-109.98C303.27,-101.84 322.5,-89.41 337.44,-79.76"/>
<polygon fill="#63b8ff" stroke="#63b8ff" points="339.59,-82.54 346.09,-74.17 335.79,-76.66 339.59,-82.54"/>
</a>
</g>
</g>
<!-- Node7 -->
<g id="Node000007" class="node">
<title>Node7</title>
<g id="a_Node000007"><a xlink:title=" ">
<polygon fill="#e0e0e0" stroke="#999999" points="383.5,-19 335.5,-19 335.5,0 383.5,0 383.5,-19"/>
<text text-anchor="middle" x="359.5" y="-7" font-family="Helvetica,sans-Serif" font-size="10.00">time.h</text>
</a>
</g>
</g>
<!-- Node6&#45;&gt;Node7 -->
<g id="edge6_Node000006_Node000007" class="edge">
<title>Node6&#45;&gt;Node7</title>
<g id="a_edge6_Node000006_Node000007"><a xlink:title=" ">
<path fill="none" stroke="#63b8ff" d="M359.5,-54.75C359.5,-47.8 359.5,-37.85 359.5,-29.13"/>
<polygon fill="#63b8ff" stroke="#63b8ff" points="363,-29.09 359.5,-19.09 356,-29.09 363,-29.09"/>
</a>
</g>
</g>
<!-- Node8&#45;&gt;Node6 -->
<g id="edge9_Node000008_Node000006" class="edge">
<title>Node8&#45;&gt;Node6</title>
<g id="a_edge9_Node000008_Node000006"><a xlink:title=" ">
<path fill="none" stroke="#63b8ff" d="M409.02,-109.98C400.3,-102.15 387.16,-90.34 376.6,-80.86"/>
<polygon fill="#63b8ff" stroke="#63b8ff" points="378.93,-78.25 369.15,-74.17 374.25,-83.46 378.93,-78.25"/>
</a>
</g>
</g>
</g>
</svg>
